<?xml version="1.0" encoding="UTF-8" standalone="no"?>
<!-- Generator: Adobe Illustrator 23.0.3, SVG Export Plug-In . SVG Version: 6.00 Build 0)  -->

<svg
   version="1.1"
   id="Layer_1"
   x="0px"
   y="0px"
   viewBox="0 0 20000 20000"
   xml:space="preserve"
   width="20000"
   height="20000"
   xmlns="http://www.w3.org/2000/svg"
   xmlns:svg="http://www.w3.org/2000/svg"><defs
   id="defs21" />
<style
   type="text/css"
   id="style1">
	.st0{fill:#818081;}
	.st1{fill:#961B22;}
	.st2{fill:#D5D2D2;}
</style>
<g
   id="g21"
   transform="matrix(16.61872,0,0,15.196327,4900.2259,3845.8092)">
	<path
   class="st0"
   d="m 887.39,398.87 c 8.26,9.87 7.93,20.73 3.17,31.78 -4.61,10.69 -12.82,18.48 -21.88,25.47 -24.65,19.01 -51.92,33.65 -79.56,47.67 -54.84,27.81 -111.2,52.27 -167.69,76.44 -78.83,33.72 -158.15,66.26 -237.39,98.99 -59.08,24.4 -118.33,48.41 -177.33,73.01 -57.93,24.15 -115.95,48.11 -172.88,74.58 -12.38,5.75 -25.02,10.93 -37.46,16.54 -1.67,0.73 -4.63,0.43 -4.37,3.65 -19.67,0 -39.33,0 -59,0 0.47,-2.5 -1.56,-3.79 -2.73,-5.44 -7.89,-11.12 -8.04,-29.29 -0.26,-38.5 0.21,0.25 0.58,0.49 0.6,0.75 1.11,18.8 21.75,31.27 41.38,22.4 23.04,-10.41 46.46,-19.99 69.43,-30.55 59.56,-27.39 120.21,-52.23 180.7,-77.45 56.79,-23.69 113.85,-46.73 170.72,-70.21 75.02,-30.97 150.09,-61.82 224.72,-93.74 56.91,-24.34 113.7,-48.94 168.92,-77 28.82,-14.64 57.34,-29.77 82.51,-50.34 8.97,-7.35 16.76,-15.75 18.4,-28.05 z"
   id="path1"
   style="fill:#818081;fill-opacity:0.503745" />
	<path
   class="st1"
   d="m 887.39,398.87 c -1.64,12.3 -9.43,20.71 -18.41,28.05 -25.17,20.57 -53.69,35.7 -82.51,50.34 -55.22,28.06 -112.01,52.66 -168.92,77 -74.62,31.92 -149.7,62.77 -224.72,93.74 -56.88,23.48 -113.93,46.52 -170.72,70.21 -60.48,25.23 -121.13,50.07 -180.7,77.45 -22.97,10.56 -46.39,20.14 -69.43,30.55 -19.63,8.87 -40.27,-3.6 -41.38,-22.4 -0.02,-0.26 -0.39,-0.5 -0.6,-0.75 0.3,-13.26 5.99,-22.53 18.02,-29.23 62.52,-34.79 128.52,-61.76 194.93,-87.82 132.18,-51.86 266.2,-98.7 399.71,-146.93 71.6,-25.87 143.33,-51.4 213.47,-81.13 23.58,-10 47,-20.34 69.29,-33.03 11.5,-6.68 23.17,-13.16 32.47,-23.31 -2.84,-1.97 -5.41,-2.24 -7.82,-2.48 -18.18,-1.78 -36.35,-3.7 -54.56,-4.98 -20.39,-1.43 -40.84,-2.03 -61.23,-3.45 -7.14,-0.5 -14.3,-0.36 -21.42,-1.05 -18.84,-1.83 -37.67,-3.68 -56.49,-5.72 -4.19,-0.45 -7.33,0.84 -10.36,3.55 -16.25,14.54 -32.99,28.49 -50.95,40.89 -16.32,11.27 -32.97,22 -52.22,27.77 -21.55,6.46 -35.1,-0.62 -42.31,-21.73 -4.37,-12.8 -4.85,-26.12 -5.25,-39.36 -0.7,-23.29 1.75,-46.5 2.94,-69.74 0.48,-9.28 1.66,-18.52 2.44,-27.78 1.03,-12.18 1.97,-24.36 3.04,-37.58 -1.03,1.79 -1.62,2.74 -2.13,3.74 -15.55,30.18 -31.18,60.32 -46.62,90.55 -20.05,39.28 -39.74,78.75 -60.97,117.42 -18.35,33.42 -37.51,66.37 -61.22,96.37 -7.18,9.08 -14.15,18.55 -24.27,24.89 -9.32,5.83 -18.1,2.02 -20.77,-8.79 -1.67,-6.74 0.42,-13.22 0.37,-19.82 8.5,-35.78 23.53,-69.13 38.2,-102.61 15.46,-35.3 33.04,-69.65 47.22,-105.52 2.87,-7.27 5.62,-14.58 7.57,-22.16 3.54,-7.96 5.29,-16.37 5.76,-25 0.55,-9.98 -2.2,-12.09 -12.01,-10.58 -11.06,1.7 -21.69,4.94 -32.3,8.28 -37.03,11.66 -72.57,27.14 -108.11,42.58 -1.3,0.56 -3.12,0.73 -3.79,2.84 18.47,-0.27 36.62,-0.89 54.42,3.53 9.88,2.5 19.23,6.08 27.7,11.97 11.03,7.67 16.82,18.04 17.38,31.4 -0.2,7.21 -1.72,14.11 -4.45,20.83 -5.51,13.59 -15.27,24.13 -24.91,34.67 -28.73,31.41 -62.54,56.76 -97.44,80.73 -48.28,33.15 -99.02,62.01 -152.41,86.09 -38.1,17.18 -77.1,31.87 -118.25,40.26 -31.73,6.47 -63.58,10.69 -95.98,6.38 -24.92,-3.32 -48.24,-11.15 -68.89,-25.84 -28.42,-20.22 -42.15,-47.9 -42.01,-82.75 0.03,-8.54 2.45,-16.78 2.29,-25.29 0,0 0.01,-0.05 0.01,-0.05 1.13,-0.79 1.02,-1.89 0.75,-3.03 7.39,-31.48 20.23,-60.87 35.02,-89.41 39.88,-76.99 92.05,-145.21 150.11,-209.19 C -41.59,183.46 6.48,138.43 59.51,98.82 132.39,44.37 212.06,2.42 297.04,-29.66 c 8.74,-3.3 17.88,-5.17 26.97,-7.17 3.27,-0.72 6.17,0.47 9.19,2.38 -0.7,0.58 -1.15,1.27 -1.63,1.29 -17.01,0.78 -31.37,9.4 -46.39,15.89 -10.9,4.71 -21.44,10.23 -31.78,16.11 -7.27,2.85 -13.88,6.97 -20.6,10.84 -4.67,2.69 -9.88,4.53 -13.89,8.33 L 219,17.93 c -0.7,0.36 -1.39,0.72 -2.09,1.09 L 217,18.96 c -0.32,0.1 -0.63,0.2 -0.94,0.31 -0.32,0.08 -0.67,0.1 -0.94,0.26 -50.94,29.77 -99.64,62.71 -144.57,101.1 -28.11,24.03 -54.97,49.32 -80.29,76.28 -28.6,30.47 -55.58,62.28 -81.23,95.26 -47.23,60.73 -89.53,124.52 -121.12,194.95 -10.41,23.21 -20.83,46.54 -24.37,72.02 -1.65,11.85 -1.95,23.91 4.06,35.05 0.8,2.13 1.27,4.43 3.14,6 7.41,12.43 19,19.82 31.68,25.64 21.06,9.67 43.35,12.18 66.28,10.78 55.32,-3.39 106.21,-22.07 155.46,-45.77 75.01,-36.09 144.34,-81.2 208.63,-134.02 16.84,-13.83 33.5,-27.93 49.14,-43.16 1.18,-1.15 2.21,-2.46 3.31,-3.7 4.15,-2.41 6.77,-6.28 9.45,-10.06 5.04,-7.1 4.19,-10.57 -3.76,-14.41 -9.61,-4.65 -20.02,-6.06 -30.51,-6.47 -30,-1.16 -59.17,4.58 -88.29,10.84 -30.24,6.5 -59.06,16.43 -86.54,30.94 -24.69,13.04 -50.17,24.65 -76.04,35.27 -14.91,6.12 -29.8,12.54 -45.8,15.23 -7.69,1.3 -16.22,3.19 -21.04,-6.22 -2.51,-8.19 0.15,-14.36 6.66,-19.76 19.45,-16.14 41.82,-27.11 64.79,-36.99 32.11,-13.8 65.08,-25.2 98.78,-34.49 13.18,-3.64 24.36,-11.4 36.12,-17.88 50.12,-27.63 100.99,-53.7 154.46,-74.35 16.6,-6.41 33.39,-12.4 51.1,-14.98 9.1,-1.32 18.3,-1.22 27.35,0.61 16.89,3.41 25.09,12.71 28.28,31.67 -0.01,0.72 -0.01,1.44 -0.02,2.15 -0.32,0.78 -0.21,1.45 0.5,1.97 0.08,0.62 0.16,1.24 0.24,1.87 -1.97,3.16 -0.87,6.78 -1.43,10.16 -3.86,23.61 -11.99,45.93 -20.71,68.02 -19.46,49.3 -41.81,97.42 -60,147.23 -2.92,8.01 -6.02,15.95 -9.25,24.45 2.59,-0.9 3.11,-2.63 4.02,-3.96 9.43,-13.71 17.92,-28.01 25.73,-42.69 3.26,-6.13 7.39,-11.82 9.62,-18.49 0.31,-0.56 0.62,-1.12 0.94,-1.68 l 0.02,-0.03 c 0.34,-0.66 0.68,-1.32 1.02,-1.98 l -0.03,0.03 c 9.34,-16.8 17.76,-34.05 25.33,-51.71 14.98,-31.87 29.77,-63.83 45.01,-95.57 13.88,-28.9 27.21,-58.14 44.87,-85.05 4.74,-7.23 9.83,-14.27 15.26,-20.99 4.37,-5.42 9.68,-9.7 17.56,-8.06 4.05,0.85 6.55,3.03 7.18,7.19 0.62,4.11 1.23,8.22 1.85,12.32 -0.71,13.92 -1.41,27.83 -2.18,42.92 3.57,-5.21 6.35,-9.27 9.13,-13.33 19.88,-23.2 43.6,-42.01 68.68,-59.11 65.85,-44.91 137.24,-78.35 213.32,-101.92 9.39,-2.91 18.99,-4.86 28.85,-5.5 16.37,-1.06 24.64,8.41 23.32,23.02 -0.82,2.86 -1.46,5.8 -2.49,8.58 -6.71,18.05 -16.41,34.51 -27.38,50.23 -23.95,34.32 -52.62,64.69 -80.59,95.62 -20.52,22.69 -41.79,44.7 -63.37,66.41 -0.73,0.73 -2.09,1.29 -0.96,3.97 8.47,0 17.42,0 26.38,0 31.93,1.34 63.87,2.48 95.78,4.09 19.93,1.01 39.94,2.02 58.77,9.82 0.46,0.19 0.93,0.37 1.38,0.57 12.82,5.7 22.11,13.8 20.79,29.41 z m -367.43,38.2 c 0.74,1.55 0.52,3.73 2.77,4.3 4.28,3.17 8.87,2.1 13.31,0.68 23.86,-7.65 42.83,-23.06 61.45,-38.99 0.29,-0.36 0.58,-0.71 0.87,-1.07 8.92,-6.18 16.51,-13.79 24.51,-21.53 -1.3,-0.82 -1.68,-1.24 -2.11,-1.3 -11.53,-1.6 -22.86,-4.23 -34.09,-7.23 -27.21,-7.26 -53.88,-15.58 -71.11,-40.52 -1.56,1.37 -1.49,3.04 -1.48,4.65 0.17,25.96 -1.45,51.95 1.05,77.85 0.77,7.81 0.97,15.92 4.83,23.16 z m 27.71,-112 c 4.66,5.07 10.9,7.56 17.05,9.98 25.51,10.07 52.43,13.23 79.44,16.12 6.06,0.65 9.79,-1.21 13.79,-5.45 30.72,-32.62 60.09,-66.44 89.17,-100.51 24.33,-28.5 48.08,-57.47 69.24,-88.47 7.51,-10.23 14.87,-20.57 22.08,-31.9 -5.71,-1.39 -10.24,0.7 -14.7,1.81 -25.17,6.24 -48.53,17.33 -71.9,28.14 -42.97,19.89 -84.08,43.18 -122.95,70.27 -26.66,18.58 -52.29,38.46 -74.6,62.27 -5.32,5.68 -10.85,11.26 -13.45,18.97 -2.02,5.95 -1.47,13.92 6.83,18.77 z"
   id="path2" />
	<path
   class="st0"
   d="m 288.11,564.31 c 0.04,6.6 -2.04,13.08 -0.37,19.82 2.68,10.81 11.45,14.63 20.77,8.79 10.12,-6.33 17.1,-15.8 24.27,-24.89 23.71,-30 42.88,-62.95 61.22,-96.37 21.23,-38.67 40.91,-78.14 60.97,-117.42 15.44,-30.24 31.07,-60.38 46.62,-90.55 0.51,-0.99 1.11,-1.95 2.13,-3.74 -1.07,13.22 -2.01,25.4 -3.04,37.58 -0.78,9.26 -1.96,18.5 -2.44,27.78 -1.19,23.24 -3.65,46.45 -2.94,69.74 0.4,13.24 0.88,26.56 5.25,39.36 7.21,21.11 20.76,28.19 42.31,21.73 19.25,-5.77 35.9,-16.5 52.22,-27.77 17.96,-12.4 34.7,-26.35 50.95,-40.89 3.02,-2.71 6.17,-4.01 10.36,-3.55 18.81,2.04 37.65,3.89 56.49,5.72 7.11,0.69 14.27,0.55 21.42,1.05 20.39,1.42 40.84,2.02 61.23,3.45 18.21,1.28 36.38,3.2 54.56,4.98 2.41,0.24 4.98,0.51 7.82,2.48 -9.31,10.15 -20.97,16.63 -32.47,23.31 -6.86,-3.15 -14.34,-2.36 -21.51,-2.85 -30.88,-2.09 -61.81,-3.36 -92.69,-5.49 -17.91,-1.23 -35.75,-3.45 -53.6,-5.4 -3.26,-0.35 -5.71,0.34 -8.17,2.53 -23.42,20.8 -47.72,40.45 -75.01,56.06 -11.31,6.47 -23,12.01 -35.88,14.76 -19.61,4.19 -35.34,-4.37 -42.46,-23.19 -4.78,-12.64 -6.28,-25.86 -6.72,-39.18 -0.92,-27.67 1.4,-55.21 3.44,-82.77 0.56,-7.55 1.9,-15.12 1.24,-23.49 -3.66,2.87 -4.75,6.62 -6.41,9.82 -15.05,28.98 -29.86,58.07 -44.85,87.07 -26.69,51.62 -52.63,103.65 -84.9,152.17 -10.25,15.42 -21.5,30.02 -33.72,43.88 -4.32,4.9 -9.58,8.81 -15.31,11.89 -12.35,6.64 -26.51,-2.63 -27.66,-18.02 -1.03,-13.38 2.4,-25.99 6.88,-38.4 z"
   id="path3"
   style="fill:#818081;fill-opacity:0.503745" />
	<path
   class="st0"
   d="m -271.89,534.11 c 0.16,8.51 -2.25,16.75 -2.29,25.29 -0.14,34.84 13.59,62.53 42.01,82.75 20.65,14.69 43.97,22.52 68.89,25.84 32.4,4.31 64.26,0.09 95.98,-6.38 41.14,-8.39 80.15,-23.08 118.25,-40.26 53.39,-24.07 104.13,-52.93 152.41,-86.09 34.9,-23.97 68.71,-49.32 97.44,-80.73 9.64,-10.54 19.4,-21.07 24.91,-34.67 2.72,-6.72 4.24,-13.61 4.45,-20.83 8.08,13.4 6.97,27.31 2.11,41.33 -5.33,15.37 -16.19,26.98 -26.72,38.82 -23.19,26.06 -50.51,47.35 -78.55,67.73 -46.58,33.85 -95.86,63.34 -147.56,88.68 -43.59,21.37 -88.46,39.53 -135.9,50.71 -31.92,7.53 -64.22,12.17 -97.02,9.57 -38.8,-3.07 -73.9,-15.47 -101.18,-44.83 -13.81,-14.86 -21.26,-32.86 -24.31,-52.73 -3.31,-21.53 0.66,-42.42 6.14,-63.12 0.11,-0.41 0.62,-0.72 0.94,-1.08 z"
   id="path4"
   style="fill:#818081;fill-opacity:0.503745" />
	<path
   class="st0"
   d="m -57.25,465.11 c 4.82,9.41 13.35,7.52 21.04,6.22 16,-2.7 30.89,-9.11 45.8,-15.23 25.87,-10.62 51.35,-22.23 76.04,-35.27 27.48,-14.51 56.31,-24.44 86.54,-30.94 29.12,-6.26 58.29,-12 88.29,-10.84 10.49,0.4 20.9,1.81 30.51,6.47 7.95,3.85 8.8,7.31 3.76,14.41 -2.68,3.78 -5.3,7.65 -9.45,10.06 -14.62,-3.87 -29.53,-4.93 -44.53,-3.82 -26.09,1.93 -51.73,6.68 -77.13,12.91 -23.34,5.72 -45.83,13.33 -67.38,24.37 -31.83,16.31 -64.11,31.86 -97.63,44.51 -14.91,5.63 -29.74,11.92 -46.25,11.05 -7.94,-0.42 -13.29,-4.79 -15.68,-13 -2.51,-8.62 -0.18,-16.64 6.07,-20.9 z"
   id="path5"
   style="fill:#818081;fill-opacity:0.503745" />
	<path
   class="st0"
   d="m 710.72,355.02 c -8.95,0 -17.91,0 -26.38,0 -1.14,-2.69 0.23,-3.24 0.96,-3.97 21.57,-21.71 42.84,-43.71 63.37,-66.41 27.97,-30.93 56.64,-61.3 80.59,-95.62 10.97,-15.72 20.67,-32.18 27.38,-50.23 1.04,-2.79 1.67,-5.72 2.49,-8.58 6.8,8.58 7.9,18.04 4.44,28.23 -6.85,20.23 -17.57,38.44 -29.76,55.79 -17.33,24.67 -37.19,47.29 -57.31,69.71 -21.56,24.04 -43.44,47.77 -65.78,71.08 z"
   id="path6"
   style="fill:#818081;fill-opacity:0.5" />
	<path
   class="st0"
   d="m 285.08,355.67 c -17.8,-4.42 -35.95,-3.8 -54.42,-3.53 0.67,-2.11 2.49,-2.28 3.79,-2.84 35.55,-15.44 71.08,-30.92 108.11,-42.58 10.61,-3.34 21.25,-6.58 32.3,-8.28 9.81,-1.51 12.56,0.59 12.01,10.58 -0.47,8.63 -2.22,17.04 -5.76,25 -0.73,-9.78 -0.79,-10.09 -10.84,-7.86 -21.34,4.74 -41.87,12.12 -62.23,19.94 -7.74,2.96 -15.76,5.29 -22.96,9.57 z"
   id="path7"
   style="fill:#818081;fill-opacity:0.503745" />
	<path
   class="st2"
   d="m 218.95,18.02 c 4.01,-3.8 9.22,-5.64 13.89,-8.33 6.72,-3.87 13.33,-8 20.6,-10.84 6.43,1.26 11.57,-2.5 16.97,-4.73 17.16,-7.11 34.26,-14.27 52.69,-17.63 6.32,-1.15 11.2,1.71 15.1,5.58 4.67,4.63 0,13.42 -7.83,13.72 -15.22,0.58 -28.2,7.53 -41.16,13.87 -41.3,20.21 -81.57,42.31 -120.09,67.56 -28.13,18.44 -55.62,37.74 -81.26,59.5 -15.8,13.41 -31.45,26.99 -46.61,41.17 -15.22,14.22 -29.96,28.92 -44.37,43.91 -15.52,16.15 -30.14,33.16 -44.67,50.22 -20.34,23.88 -39.78,48.46 -58.44,73.66 -21.26,28.72 -41.08,58.42 -59.26,89.19 -10.83,18.33 -21.46,36.8 -30.47,56.11 -12.14,26.05 -24.53,52.04 -31.25,80.2 -2.27,9.51 -3.54,19.21 -2.01,29.03 -1.87,-1.57 -2.34,-3.87 -3.14,-6 0.51,-8.29 1.03,-16.55 3.08,-24.67 6.17,-24.51 16.28,-47.52 26.89,-70.3 15.49,-33.25 33.76,-64.99 53.63,-95.81 34.4,-53.35 72.92,-103.56 114.95,-151.13 21.51,-24.34 43.63,-48.03 67.26,-70.34 19.12,-18.06 38.82,-35.41 59.26,-51.95 33.42,-27.04 68.78,-51.29 105.6,-73.42 21.26,-12.78 42.72,-25.26 65.01,-36.17 22.16,-10.85 43.34,-24.25 68.61,-27.44 2.88,-0.36 5.25,-2.26 6.13,-5.26 0.69,-2.36 -0.3,-4.38 -2.29,-5.61 -3.44,-2.11 -7.22,-3.8 -11.31,-3.08 -5.72,1.01 -11.41,2.31 -17.01,3.86 -22.37,6.2 -43.36,16.01 -64.67,25 -7.96,3.35 -15.42,7.85 -23.83,10.13 z"
   id="path8" />
	<path
   class="st2"
   d="m 386.29,434.28 c -7.57,17.67 -15.98,34.92 -25.33,51.71 0.27,-1.3 0.33,-2.68 0.83,-3.87 8.92,-21.34 18.09,-42.58 26.82,-64 11.06,-27.12 21.96,-54.36 26.12,-83.6 1.43,-10.03 1.41,-20.21 -3.7,-29.59 -0.08,-0.62 -0.16,-1.24 -0.24,-1.87 0.28,-0.77 0.19,-1.44 -0.5,-1.97 0.01,-0.72 0.01,-1.44 0.02,-2.15 3.64,2.63 4.46,6.79 5.56,10.68 4.22,14.92 1.37,29.51 -2.28,44.06 -6.55,26.14 -16.78,50.96 -26.85,75.85 -0.6,1.47 -2.8,2.96 -0.45,4.75 z"
   id="path9" />
	<path
   class="st0"
   d="m 524.96,273.72 c -2.78,4.06 -5.56,8.12 -9.13,13.33 0.76,-15.09 1.47,-29 2.18,-42.92 5.4,3.29 4.57,9.14 5.47,14.11 0.7,3.85 0.29,7.9 0.34,11.86 0.01,1.33 -0.1,2.68 1.14,3.62 z"
   id="path10" />
	<path
   class="st0"
   d="m -271.12,531.04 c 0.28,1.14 0.38,2.24 -0.75,3.03 -0.48,-1.2 -0.25,-2.21 0.75,-3.03 z"
   id="path11" />
	<path
   class="st0"
   d="m 218.95,18.02 c 8.41,-2.28 15.87,-6.78 23.82,-10.14 21.31,-8.99 42.3,-18.79 64.67,-25 5.6,-1.55 11.29,-2.86 17.01,-3.86 4.09,-0.72 7.87,0.98 11.31,3.08 2,1.22 2.99,3.25 2.29,5.61 -0.88,3 -3.26,4.9 -6.13,5.26 C 306.65,-3.84 285.48,9.56 263.31,20.41 241.02,31.32 219.56,43.8 198.3,56.58 161.48,78.71 126.12,102.96 92.7,130 c -20.43,16.53 -40.14,33.89 -59.26,51.95 -23.63,22.31 -45.75,46 -67.26,70.34 -42.03,47.57 -80.55,97.78 -114.95,151.13 -19.87,30.82 -38.14,62.56 -53.63,95.81 -10.61,22.78 -20.72,45.8 -26.89,70.3 -2.04,8.12 -2.57,16.38 -3.08,24.67 -6.01,-11.14 -5.71,-23.2 -4.07,-35.05 3.54,-25.48 13.96,-48.81 24.37,-72.02 31.59,-70.43 73.89,-134.21 121.12,-194.95 25.65,-32.98 52.63,-64.8 81.23,-95.26 C 15.6,169.95 42.45,144.66 70.57,120.64 115.5,82.25 164.2,49.3 215.14,19.54 c 0.27,-0.16 0.63,-0.18 0.94,-0.26 0.32,-0.1 0.63,-0.21 0.94,-0.31 0,0 -0.09,0.06 -0.09,0.06 0.7,-0.36 1.39,-0.72 2.09,-1.09 z"
   id="path12"
   style="fill:#818081;fill-opacity:0.503745;stroke:none" />
	<path
   class="st0"
   d="m 816.35,156.75 c -2.1,-1.29 -3.89,0.19 -5.63,0.84 -32.75,12.27 -64.59,26.53 -95.41,43.09 -27.28,14.65 -53.96,30.27 -79.46,47.84 -27.57,19 -53.97,39.45 -76.99,63.94 -3.85,4.09 -7.47,8.4 -11.19,12.61 -8.3,-4.85 -8.84,-12.82 -6.84,-18.76 2.6,-7.71 8.13,-13.29 13.45,-18.97 22.3,-23.81 47.93,-43.69 74.6,-62.27 38.88,-27.09 79.98,-50.38 122.95,-70.27 23.37,-10.82 46.73,-21.9 71.9,-28.14 4.46,-1.11 8.99,-3.2 14.7,-1.81 -7.21,11.33 -14.57,21.66 -22.08,31.9 z"
   id="path13"
   style="fill:#818081;fill-opacity:0.503745" />
	<path
   class="st0"
   d="m 519.96,437.07 c -3.87,-7.24 -4.06,-15.35 -4.82,-23.15 -2.5,-25.9 -0.89,-51.9 -1.05,-77.85 -0.01,-1.6 -0.08,-3.28 1.48,-4.65 17.23,24.94 43.9,33.26 71.11,40.52 11.23,3 22.55,5.62 34.09,7.23 0.43,0.06 0.8,0.48 2.11,1.3 -8,7.74 -15.59,15.35 -24.51,21.54 -0.98,-1.3 -2.41,-1.57 -3.89,-1.94 -25.48,-6.45 -50.93,-12.96 -71.39,-31.03 -1.98,-1.75 -3.8,-1.22 -3.89,1.83 -0.1,3.49 -0.14,6.98 -0.12,10.47 0.11,18.57 -0.49,37.16 0.88,55.73 z"
   id="path14"
   style="fill:#818081;fill-opacity:0.503745;stroke:none" />
	<path
   class="st0"
   d="m 411.02,304.94 c 5.11,9.37 5.13,19.56 3.7,29.59 -4.16,29.25 -15.06,56.48 -26.12,83.6 -8.73,21.42 -17.9,42.66 -26.82,64 -0.5,1.2 -0.56,2.58 -0.83,3.87 0,0 0.03,-0.03 0.03,-0.03 -0.34,0.66 -0.68,1.32 -1.02,1.98 0,0 -0.02,0.03 -0.02,0.03 -0.31,0.56 -0.62,1.12 -0.94,1.68 -2.23,6.67 -6.36,12.36 -9.62,18.49 -7.81,14.69 -16.3,28.98 -25.73,42.69 -0.91,1.33 -1.43,3.05 -4.02,3.96 3.22,-8.51 6.32,-16.45 9.25,-24.45 18.2,-49.81 40.54,-97.94 60,-147.23 8.72,-22.09 16.85,-44.41 20.71,-68.02 0.56,-3.39 -0.54,-7 1.43,-10.16 z"
   id="path15"
   style="fill:#818081;fill-opacity:0.503745;stroke:none" />
	<path
   class="st2"
   d="m 519.96,437.07 c -1.37,-18.56 -0.77,-37.16 -0.89,-55.74 -0.02,-3.49 0.02,-6.98 0.12,-10.47 0.09,-3.06 1.91,-3.58 3.89,-1.83 20.46,18.07 45.91,24.58 71.39,31.03 1.49,0.38 2.91,0.64 3.89,1.94 -0.29,0.36 -0.58,0.71 -0.87,1.07 -19.51,-4.7 -38.96,-9.56 -56.83,-19.17 -6.59,-3.54 -12.6,-7.87 -18.23,-12.58 -2.02,0.77 -1.37,2.32 -1.37,3.49 -0.05,15.12 -0.2,30.24 0.05,45.36 0.12,7.08 1.05,14.14 1.62,21.21 -2.25,-0.59 -2.02,-2.76 -2.77,-4.31 z"
   id="path16" />
	<path
   class="st2"
   d="m 219.04,17.94 c -0.7,0.36 -1.39,0.72 -2.09,1.09 0.7,-0.36 1.39,-0.73 2.09,-1.09 z"
   id="path17" />
	<path
   class="st0"
   d="m 410.28,301.11 c 0.69,0.52 0.79,1.2 0.5,1.97 -0.71,-0.53 -0.82,-1.19 -0.5,-1.97 z"
   id="path18" />
	<path
   class="st2"
   d="m 359.98,487.95 c 0.34,-0.66 0.68,-1.32 1.02,-1.98 -0.35,0.66 -0.68,1.32 -1.02,1.98 z"
   id="path19" />
	<path
   class="st2"
   d="m 359.02,489.66 c 0.31,-0.56 0.62,-1.12 0.94,-1.68 -0.32,0.56 -0.63,1.12 -0.94,1.68 z"
   id="path20" />
	<path
   class="st2"
   d="m 217.04,18.97 c -0.31,0.1 -0.63,0.21 -0.94,0.31 0.31,-0.11 0.62,-0.21 0.94,-0.31 z"
   id="path21" />
</g>
</svg>
