<?xml version="1.0" encoding="utf-8"?>
<!-- Generator: Adobe Illustrator 16.0.0, SVG Export Plug-In . SVG Version: 6.00 Build 0)  -->
<!DOCTYPE svg PUBLIC "-//W3C//DTD SVG 1.1//EN" "http://www.w3.org/Graphics/SVG/1.1/DTD/svg11.dtd">
<svg version="1.1" id="Layer_1" xmlns="http://www.w3.org/2000/svg" xmlns:xlink="http://www.w3.org/1999/xlink" x="0px" y="0px"
	 viewBox="0 0 800 800" enable-background="new 0 0 800 800" xml:space="preserve">
<g>
	<g>
		<path fill="none" d="M780.7,728.1c-253.8,0-507.5,0-761.3,0c0-218.7,0-437.5,0-656.3c253.7,0,507.5,0,761.3,0
			C780.7,290.6,780.7,509.4,780.7,728.1z M412.6,170.5c0-0.1,0-0.2,0-0.3c-0.3,0.1-0.6,0.1-0.9,0.2c-6.7,3.2-13.5,6.4-20.2,9.8
			c-4.7,2.3-9.3,4.7-13.9,7.3c-7.8,4.3-15.5,8.8-23.3,13.2c-2.3,1.3-4.6,2.7-6.8,4.2c-7,4.7-14,9.5-20.9,14.3c-3.5,2.5-7,5-10.4,7.7
			c-5.5,4.4-10.9,8.9-16.3,13.4c-3.3,2.8-6.7,5.5-9.8,8.4c-6.3,5.9-12.6,11.8-18.8,17.8c-3.9,3.8-7.8,7.8-11.5,11.8
			c-5.2,5.6-10.2,11.3-15.3,16.9c-3.5,4-7.1,8-10.5,12.1c-4.5,5.5-8.8,11-13.1,16.6c-4.3,5.5-8.7,11-12.8,16.6
			c-5.5,7.7-10.9,15.6-16.2,23.5c-4.5,6.7-8.9,13.3-13.1,20.2c-5.4,9-10.7,18.2-15.6,27.5c-4.7,8.9-9.4,17.9-13.3,27.2
			c-4.9,11.5-9.3,23.3-13.2,35.2c-4.4,13.3-6.7,27-4.9,41.1c1.8,14,7.8,25.8,18.4,35.2c5,4.3,10.6,7.8,16.6,10.4
			c7.1,3,14.5,5.3,22.3,5.7c12.7,0.5,25.3,0.6,37.6-2.9c5.1-1.4,10.3-2.3,15.3-3.8c7-2.2,13.9-4.7,20.8-7.3
			c5.8-2.3,11.6-4.8,17.2-7.5c7.2-3.5,14.3-7.3,21.4-11c5.6-3,11.1-6.2,16.6-9.3c2-1.2,4-2.4,6-3.7c6.7-4.5,13.4-8.9,20-13.4
			c2.5-1.7,5-3.3,7.4-5.1c6.1-4.6,12.2-9.2,18.2-13.9c3.3-2.6,6.7-5.2,9.8-8c4.8-4.2,9.4-8.5,14-12.8c3.3-3,6.8-5.9,9.8-9.2
			c5.8-6.6,11.5-13.5,17-20.4c4.3-5.3,7.7-11.2,9-18c2.4-12.4-1.1-19-9.4-25c-6-4.3-13.2-5.9-20.3-6.7c-5.8-0.7-11.7-0.1-17.5-0.3
			c-1,0-2-0.7-3-1.1c0.6-0.9,1-2.2,1.8-2.6c7.6-3.9,15.2-7.6,22.9-11.3c5.2-2.5,10.4-5,15.8-7.2c7-2.9,14-5.8,21.3-8.2
			c5.1-1.7,10.1-4.2,15.7-3.8c3.2,0.2,4.8,1.3,4.8,4.6c0,3.3-0.2,6.7-0.8,9.9c-2.2,11.4-6.2,22.3-10.4,33.2
			c-3.9,10.2-8.1,20.2-12.1,30.3c-5.1,13-10,26.1-15,39.1c-4.6,12.4-8.7,24.9-11,37.9c-0.7,3.7-0.4,7.6-0.1,11.3
			c0.3,3.4,4.3,5.8,6.5,4.1c2.6-2.1,5.4-4.2,7.3-6.9c5.5-7.8,10.8-15.7,15.7-23.8c4.7-7.7,9-15.7,13-23.8
			c5.7-11.3,10.9-22.9,16.3-34.4c4.9-10.7,9.8-21.4,14.6-32.1c5.7-12.6,11.2-25.3,16.9-38c4.7-10.4,9.4-20.8,14-31.3
			c0.5-1.2,0.9-2.6,2.3-2c0.7,0.3,1.2,1.9,1.2,2.9c-0.4,6.2-0.9,12.5-1.4,18.7c-1.5,19.7-3,39.3-2.7,59.1c0.1,8,0.7,16,3.4,23.6
			c2.6,7.2,7.8,10.8,15.3,9c2.4-0.6,4.8-1.5,7-2.5c3.3-1.6,6.5-3.4,9.7-5.2c2.4-1.4,4.7-2.9,6.8-4.6c5.6-4.5,11.1-9.1,16.5-13.9
			c3.2-2.8,6-5.9,9.1-8.8c2.6-2.4,5.3-4.7,7.9-7c0.4-0.3,1-0.6,1.4-0.6c3.2,0.5,6.3,1.2,9.5,1.5c11.2,1.1,22.5,2.2,33.7,3.1
			c9.2,0.7,18.5,1,27.7,1.7c7.5,0.6,14.9,1.4,22.4,2.2c2.7,0.3,5.5,0.7,8.2,1.3c2.6,0.6,3.1,2.2,1.3,4.2c-1.8,2-3.6,4.2-5.8,5.8
			c-5.1,3.8-10.2,7.5-15.6,10.8c-6.4,3.9-13,7.4-19.7,10.9c-4.8,2.5-9.6,4.8-14.5,7.1c-5.4,2.6-10.9,5.1-16.4,7.6
			c-5.2,2.4-10.4,4.7-15.6,7.1c-5.9,2.6-11.8,5.1-17.7,7.6c-5.5,2.4-11.1,4.7-16.6,7.1c-5.8,2.4-11.5,4.9-17.3,7.3
			c-6.1,2.5-12.1,5-18.2,7.5c-5.7,2.4-11.4,4.8-17.1,7.1c-6.2,2.6-12.4,5.1-18.7,7.7c-5.8,2.4-11.6,4.7-17.3,7.1
			c-5.7,2.4-11.4,4.7-17.1,7.1c-6.1,2.6-12.3,5.1-18.4,7.6c-5.6,2.3-11.2,4.7-16.9,7c-5.8,2.4-11.5,4.8-17.3,7.3
			c-5.9,2.5-11.8,4.9-17.7,7.5c-8.6,3.7-17.2,7.4-25.8,11.2c-5.2,2.3-10.4,4.5-15.6,6.9c-8.4,3.7-16.7,7.5-25,11.2
			c-5.3,2.4-10.7,4.8-16,7.3c-7.8,3.7-15.5,7.4-23.2,11.2c-4.6,2.2-9.1,4.5-13.6,6.9c-6.6,3.6-13.3,7.3-19.8,11.1
			c-6,3.5-11.8,7.4-17.9,10.8c-5.3,2.9-7.2,7.4-7.6,13c-0.5,5.8,3.3,12.4,8.2,14.2c3.3,1.3,6.7,1.2,9.9-0.4c6.2-3,12.4-6.3,18.5-9.4
			c4.7-2.4,9.5-4.8,14.2-7.2c7.5-3.9,15-7.8,22.5-11.6c4.7-2.4,9.4-4.7,14-7c7.6-3.7,15.2-7.4,22.7-11.1c4.8-2.3,9.5-4.6,14.3-6.9
			c5.5-2.6,11-5.3,16.5-7.9c4.8-2.3,9.6-4.6,14.4-6.9c7.8-3.7,15.7-7.4,23.5-11.1c5.3-2.5,10.6-5,15.9-7.5
			c5.1-2.4,10.2-4.8,15.2-7.2c5-2.4,10-4.7,15-7.1c5.4-2.5,10.7-5.1,16.1-7.6c5-2.4,10-4.8,15-7.1c5.4-2.5,10.7-5.1,16.1-7.6
			c5-2.4,10-4.8,15-7.2c4.9-2.4,9.8-4.7,14.8-7.1c5.3-2.5,10.6-5.1,15.9-7.6c4.8-2.3,9.7-4.7,14.5-7c5.3-2.6,10.7-5.2,16-7.8
			c4.6-2.3,9.2-4.6,13.8-6.9c7.3-3.7,14.6-7.5,21.9-11.2c3.7-1.9,7.5-3.7,11.2-5.5c2.6-1.3,5.2-2.6,7.7-4.1
			c7.2-4.1,14.3-8.2,21.5-12.4c5.9-3.5,11.9-6.9,17.6-10.7c7.1-4.8,13.9-10,20.8-15.2c4.4-3.3,7.9-7.4,10.4-12.3
			c3.1-6.1,2.4-13.1-2.7-17.7c-3.7-3.4-8.3-5.4-12.9-6.3c-8.3-1.6-16.7-2.7-25.1-3.3c-13.3-0.9-26.7-1.1-40.1-1.6
			c-5.7-0.2-11.4-0.4-17.1-0.8c-0.8-0.1-1.8-0.8-2.2-1.5c-0.3-0.4,0.1-1.6,0.6-2.1c2.4-3.1,5-6,7.5-9c7-8.4,14.1-16.8,21-25.4
			c6.9-8.5,13.6-17,20.2-25.7c5.5-7.2,10.7-14.5,16-21.8c7.7-10.6,14.2-21.9,19-34.1c1.6-4.1,3-8.4,3.4-12.7
			c0.5-5.1-3.2-9.9-9.3-9.4c-0.9,0.1-1.7,0.1-2.6,0.2c-7.1,0.9-13.8,3.2-20.4,6c-6,2.5-12.2,4.9-18.2,7.6
			c-5.1,2.3-10.2,4.7-15.2,7.2c-7.1,3.6-14.1,7.4-21.1,11.3c-5.3,3-10.6,6.1-15.8,9.2c-2.2,1.3-4.3,2.6-6.3,4.1
			c-6.1,4.4-12.2,8.8-18.2,13.3c-3.6,2.7-7.3,5.4-10.7,8.5c-6.1,5.6-12.2,11.3-17.8,17.3c-3.8,4-7,8.6-10.3,13.1
			c-1.8,2.4-3.2,5-4.8,7.6c-0.6-0.8-0.7-1.3-0.7-1.8c0.2-7.7,0.6-15.4,0.7-23c0.1-3.2-0.1-6.5-0.6-9.7c-0.2-1.3-1.3-2.7-2.4-3.4
			c-1.4-0.8-3-0.5-4.2,1c-1.4,1.7-3.2,3-4.3,4.8c-3.4,5.4-7,10.7-9.8,16.4c-4.5,9-8.5,18.3-12.6,27.5c-3.5,7.9-6.8,15.9-10.1,24
			c-3.7,9-7.2,18-10.9,27c-4.3,10.5-8.5,21-13,31.5c-4.4,10.3-8.8,20.6-13.6,30.6c-4,8.4-8.6,16.6-13.1,24.8c-1.2,2.1-2.8,4-4.2,6
			c-0.3-0.1-0.5-0.2-0.8-0.3c0.4-2.4,0.6-4.8,1.3-7.1c3.1-9.8,6.3-19.5,9.7-29.2c6.1-17.2,12.5-34.2,18.5-51.4
			c4.7-13.6,9.2-27.2,13.3-40.9c2.4-7.9,3.9-16,3.1-24.3c-0.8-8.3-5.4-14.3-12.7-15.6c-4.3-0.8-8.8-0.8-13.2-0.4
			c-6.6,0.6-12.7,3.2-18.7,5.9c-8.3,3.7-16.5,7.4-24.7,11.4c-6.7,3.3-13.3,6.9-19.8,10.5c-6.8,3.8-13.5,7.8-20.3,11.7
			c-5.2,3.1-10.3,6.2-15.5,9.3c-1.9,1.2-3.8,2.4-5.8,3.6c-4,2.4-7.9,5.1-12,7.2c-3.9,1.9-8.2,3.2-12.4,4.8
			c-6.8,2.6-13.6,5.1-20.4,7.8c-5.4,2.2-10.7,4.4-15.8,7c-7.7,3.9-15.4,8-22.9,12.4c-4,2.3-7.5,5.3-11.1,8.3
			c-1.9,1.6-3.5,3.6-4.9,5.6c-1.5,2.3-0.8,4.7,0.3,7c0.9,1.9,2.8,1.8,4.6,1.8c5-0.1,9.6-1.4,14-3.6c4.6-2.2,9.5-3.8,14.1-6
			c6.7-3.3,13.3-6.9,19.9-10.4c2.6-1.4,5.3-2.7,7.9-4.2c7.2-4.1,14.3-8.7,21.7-12.4c5.9-2.9,12.2-4.9,18.3-7.1
			c3.8-1.4,7.8-2.4,11.7-3.4c5.7-1.4,11.5-2.8,17.3-3.8c5.9-1,11.9-1.8,17.9-2c8.3-0.4,16.6-0.6,24.5,3.3c5.8,2.8,5.9,7.6,2.9,11.4
			c-4.4,5.5-9.2,10.6-14,15.8c-2.7,2.9-5.6,5.5-8.4,8.2c-4.6,4.5-9.1,9-13.8,13.4c-3.3,3.1-6.7,5.9-10.1,8.9c-5,4.3-9.9,8.6-15,12.8
			c-3.7,3.1-7.7,6-11.5,8.9c-7,5.3-13.9,10.6-21,15.7c-5.5,3.9-11.1,7.6-16.8,11.2c-5.9,3.8-11.9,7.5-18,11
			c-6.7,3.8-13.6,7.4-20.5,10.9c-5.1,2.6-10.3,5-15.6,7.1c-6.4,2.5-12.8,5-19.4,7c-5.5,1.7-11.3,2.7-17,3.9c-3.3,0.7-6.7,1-10.1,1.2
			c-9,0.6-17.9,0.6-26.7-2.1c-6.7-2.1-12.8-5.1-18.2-9.5c-2.7-2.2-5.1-4.9-7-7.8c-5.5-8.2-5.9-17.5-4.8-26.9
			c1.2-10.5,4.5-20.5,8.1-30.4c3.8-10.3,7.9-20.4,12.3-30.5c3.6-8.4,7.7-16.6,11.9-24.7c3.3-6.5,6.7-12.8,10.3-19.1
			c4.6-8.1,9.3-16.2,14.2-24.2c3.3-5.5,6.9-10.9,10.5-16.3c4.6-6.9,9.2-13.7,13.9-20.5c3.8-5.5,7.8-10.9,11.8-16.2
			c4.3-5.7,8.5-11.4,12.9-17.1c3.1-4,6.4-8,9.7-11.9c5.1-6,10.1-12,15.3-17.8c3.5-4,7.3-7.8,10.9-11.6c4.2-4.3,8.3-8.7,12.6-12.9
			c3.1-3,6.3-5.9,9.5-8.8c6.2-5.5,12.3-11.1,18.6-16.4c4.2-3.6,8.5-7.1,13-10.4c6.9-5.2,13.8-10.2,20.9-15.2
			c5.2-3.6,10.4-7.2,15.7-10.6c6.1-3.9,12.2-7.6,18.4-11.3C402.7,175.9,407.7,173.3,412.6,170.5z"/>
		<path fill="#931822" d="M412.6,170.5c-4.9,2.7-9.9,5.4-14.7,8.2c-6.2,3.7-12.3,7.4-18.4,11.3c-5.3,3.4-10.6,6.9-15.7,10.6
			c-7,5-14,10-20.9,15.2c-4.4,3.3-8.8,6.8-13,10.4c-6.3,5.4-12.4,10.9-18.6,16.4c-3.2,2.9-6.4,5.7-9.5,8.8
			c-4.3,4.2-8.5,8.6-12.6,12.9c-3.7,3.8-7.4,7.7-10.9,11.6c-5.2,5.9-10.3,11.8-15.3,17.8c-3.3,3.9-6.6,7.8-9.7,11.9
			c-4.4,5.6-8.7,11.3-12.9,17.1c-4,5.4-7.9,10.7-11.8,16.2c-4.7,6.8-9.3,13.6-13.9,20.5c-3.6,5.4-7.1,10.8-10.5,16.3
			c-4.8,8-9.6,16.1-14.2,24.2c-3.6,6.3-7.1,12.6-10.3,19.1c-4.1,8.2-8.2,16.3-11.9,24.7c-4.4,10-8.4,20.2-12.3,30.5
			c-3.7,9.8-6.9,19.9-8.1,30.4c-1.1,9.4-0.6,18.7,4.8,26.9c1.9,2.9,4.3,5.7,7,7.8c5.4,4.4,11.5,7.4,18.2,9.5
			c8.8,2.8,17.7,2.7,26.7,2.1c3.4-0.2,6.8-0.6,10.1-1.2c5.7-1.1,11.4-2.2,17-3.9c6.6-2,13-4.4,19.4-7c5.3-2.1,10.5-4.5,15.6-7.1
			c6.9-3.5,13.7-7.1,20.5-10.9c6.1-3.5,12.1-7.2,18-11c5.7-3.6,11.3-7.3,16.8-11.2c7.1-5.1,14-10.5,21-15.7
			c3.9-2.9,7.8-5.8,11.5-8.9c5.1-4.2,10-8.5,15-12.8c3.4-2.9,6.8-5.8,10.1-8.9c4.7-4.4,9.2-8.9,13.8-13.4c2.8-2.7,5.7-5.4,8.4-8.2
			c4.8-5.2,9.6-10.3,14-15.8c3.1-3.8,2.9-8.5-2.9-11.4c-7.9-3.9-16.2-3.7-24.5-3.3c-6,0.3-12,1-17.9,2c-5.8,1-11.5,2.4-17.3,3.8
			c-4,1-7.9,2-11.7,3.4c-6.2,2.2-12.5,4.2-18.3,7.1c-7.5,3.7-14.5,8.2-21.7,12.4c-2.6,1.5-5.2,2.8-7.9,4.2
			c-6.6,3.5-13.2,7.1-19.9,10.4c-4.6,2.2-9.5,3.8-14.1,6c-4.5,2.2-9.1,3.5-14,3.6c-1.8,0-3.6,0.2-4.6-1.8c-1.1-2.3-1.9-4.7-0.3-7
			c1.4-2,3-4,4.9-5.6c3.5-3,7.1-6,11.1-8.3c7.5-4.4,15.1-8.5,22.9-12.4c5.1-2.6,10.5-4.9,15.8-7c6.7-2.7,13.6-5.2,20.4-7.8
			c4.1-1.6,8.4-2.8,12.4-4.8c4.2-2.1,8-4.8,12-7.2c1.9-1.2,3.8-2.4,5.8-3.6c5.2-3.1,10.3-6.3,15.5-9.3c6.7-4,13.4-7.9,20.3-11.7
			c6.5-3.6,13.1-7.2,19.8-10.5c8.1-4,16.4-7.7,24.7-11.4c6-2.7,12.1-5.3,18.7-5.9c4.4-0.4,8.9-0.4,13.2,0.4
			c7.3,1.3,11.9,7.3,12.7,15.6c0.8,8.4-0.8,16.5-3.1,24.3c-4.1,13.7-8.6,27.4-13.3,40.9c-6,17.2-12.4,34.3-18.5,51.4
			c-3.4,9.7-6.6,19.4-9.7,29.2c-0.7,2.3-0.9,4.7-1.3,7.1c0.3,0.1,0.5,0.2,0.8,0.3c1.4-2,3.1-3.9,4.2-6c4.5-8.2,9-16.4,13.1-24.8
			c4.8-10.1,9.2-20.4,13.6-30.6c4.5-10.4,8.7-21,13-31.5c3.7-9,7.2-18,10.9-27c3.3-8,6.6-16,10.1-24c4.1-9.2,8.1-18.5,12.6-27.5
			c2.8-5.7,6.4-11,9.8-16.4c1.2-1.8,3-3.2,4.3-4.8c1.2-1.5,2.8-1.8,4.2-1c1.1,0.7,2.2,2.1,2.4,3.4c0.5,3.2,0.6,6.5,0.6,9.7
			c-0.1,7.7-0.5,15.4-0.7,23c0,0.5,0.1,1.1,0.7,1.8c1.6-2.5,3-5.2,4.8-7.6c3.3-4.5,6.5-9.1,10.3-13.1c5.7-6,11.7-11.7,17.8-17.3
			c3.3-3.1,7-5.8,10.7-8.5c6-4.5,12.1-8.9,18.2-13.3c2-1.5,4.2-2.8,6.3-4.1c5.2-3.1,10.5-6.3,15.8-9.2c7-3.9,14-7.6,21.1-11.3
			c5-2.6,10.1-5,15.2-7.2c6-2.6,12.1-5,18.2-7.6c6.6-2.8,13.3-5.1,20.4-6c0.9-0.1,1.7-0.1,2.6-0.2c6.1-0.5,9.8,4.3,9.3,9.4
			c-0.4,4.3-1.8,8.6-3.4,12.7c-4.8,12.2-11.4,23.5-19,34.1c-5.3,7.3-10.5,14.7-16,21.8c-6.6,8.7-13.4,17.2-20.2,25.7
			c-6.9,8.5-14,16.9-21,25.4c-2.5,3-5,6-7.5,9c-0.4,0.5-0.8,1.7-0.6,2.1c0.4,0.7,1.4,1.5,2.2,1.5c5.7,0.4,11.4,0.6,17.1,0.8
			c13.4,0.5,26.8,0.7,40.1,1.6c8.4,0.5,16.8,1.7,25.1,3.3c4.7,0.9,9.2,2.9,12.9,6.3c5.1,4.6,5.8,11.6,2.7,17.7
			c-2.5,4.9-6.1,9-10.4,12.3c-6.9,5.1-13.7,10.3-20.8,15.2c-5.7,3.9-11.7,7.3-17.6,10.7c-7.1,4.2-14.3,8.3-21.5,12.4
			c-2.5,1.4-5.1,2.8-7.7,4.1c-3.7,1.9-7.5,3.7-11.2,5.5c-7.3,3.7-14.6,7.5-21.9,11.2c-4.6,2.3-9.2,4.6-13.8,6.9
			c-5.3,2.6-10.7,5.2-16,7.8c-4.8,2.4-9.7,4.7-14.5,7c-5.3,2.5-10.6,5.1-15.9,7.6c-4.9,2.4-9.8,4.7-14.8,7.1c-5,2.4-10,4.8-15,7.2
			c-5.4,2.6-10.7,5.1-16.1,7.6c-5,2.4-10,4.8-15,7.1c-5.4,2.5-10.7,5.1-16.1,7.6c-5,2.4-10,4.7-15,7.1c-5.1,2.4-10.2,4.8-15.2,7.2
			c-5.3,2.5-10.6,5-15.9,7.5c-7.8,3.7-15.7,7.4-23.5,11.1c-4.8,2.3-9.6,4.6-14.4,6.9c-5.5,2.6-11,5.2-16.5,7.9
			c-4.8,2.3-9.6,4.6-14.3,6.9c-7.6,3.7-15.2,7.4-22.7,11.1c-4.7,2.3-9.4,4.6-14,7c-7.5,3.8-15,7.8-22.5,11.6
			c-4.7,2.4-9.5,4.8-14.2,7.2c-6.2,3.2-12.3,6.4-18.5,9.4c-3.2,1.6-6.6,1.6-9.9,0.4c-4.9-1.8-8.7-8.4-8.2-14.2
			c0.4-5.6,2.4-10.1,7.6-13c6.1-3.3,11.9-7.3,17.9-10.8c6.5-3.8,13.1-7.5,19.8-11.1c4.5-2.4,9-4.7,13.6-6.9
			c7.7-3.8,15.4-7.5,23.2-11.2c5.3-2.5,10.6-4.9,16-7.3c8.3-3.8,16.7-7.5,25-11.2c5.2-2.3,10.4-4.6,15.6-6.9
			c8.6-3.7,17.2-7.5,25.8-11.2c5.9-2.5,11.8-5,17.7-7.5c5.8-2.4,11.5-4.8,17.3-7.3c5.6-2.3,11.2-4.7,16.9-7
			c6.1-2.6,12.3-5.1,18.4-7.6c5.7-2.4,11.4-4.8,17.1-7.1c5.8-2.4,11.6-4.8,17.3-7.1c6.2-2.6,12.5-5.1,18.7-7.7
			c5.7-2.4,11.4-4.8,17.1-7.1c6.1-2.5,12.1-5,18.2-7.5c5.8-2.4,11.5-4.8,17.3-7.3c5.5-2.3,11.1-4.7,16.6-7.1
			c5.9-2.5,11.8-5.1,17.7-7.6c5.2-2.3,10.4-4.7,15.6-7.1c5.5-2.5,10.9-5.1,16.4-7.6c4.9-2.3,9.7-4.6,14.5-7.1
			c6.6-3.5,13.3-7,19.7-10.9c5.4-3.3,10.5-7,15.6-10.8c2.2-1.6,4-3.7,5.8-5.8c1.8-1.9,1.3-3.5-1.3-4.2c-2.7-0.7-5.4-1-8.2-1.3
			c-7.5-0.8-14.9-1.6-22.4-2.2c-9.2-0.7-18.5-1-27.7-1.7c-11.3-0.9-22.5-2-33.7-3.1c-3.2-0.3-6.3-1-9.5-1.5c-0.4-0.1-1,0.2-1.4,0.6
			c-2.7,2.3-5.4,4.6-7.9,7c-3.1,2.9-5.9,6.1-9.1,8.8c-5.4,4.7-10.9,9.3-16.5,13.9c-2.1,1.7-4.4,3.2-6.8,4.6
			c-3.2,1.9-6.4,3.6-9.7,5.2c-2.2,1.1-4.6,2-7,2.5c-7.6,1.8-12.7-1.8-15.3-9c-2.8-7.6-3.3-15.6-3.4-23.6
			c-0.3-19.7,1.2-39.4,2.7-59.1c0.5-6.2,1-12.5,1.4-18.7c0.1-1-0.5-2.6-1.2-2.9c-1.4-0.5-1.7,0.9-2.3,2c-4.6,10.4-9.3,20.9-14,31.3
			c-5.6,12.7-11.2,25.3-16.9,38c-4.8,10.7-9.6,21.4-14.6,32.1c-5.3,11.5-10.6,23-16.3,34.4c-4,8.1-8.4,16.1-13,23.8
			c-4.9,8.1-10.2,16-15.7,23.8c-1.9,2.7-4.7,4.8-7.3,6.9c-2.2,1.7-6.2-0.7-6.5-4.1c-0.3-3.7-0.5-7.6,0.1-11.3
			c2.3-13,6.4-25.6,11-37.9c4.9-13.1,9.9-26.1,15-39.1c3.9-10.1,8.2-20.2,12.1-30.3c4.2-10.8,8.2-21.7,10.4-33.2
			c0.6-3.2,0.7-6.6,0.8-9.9c0-3.2-1.5-4.3-4.8-4.6c-5.7-0.4-10.6,2.1-15.7,3.8c-7.2,2.4-14.2,5.3-21.3,8.2
			c-5.3,2.2-10.6,4.7-15.8,7.2c-7.7,3.7-15.3,7.5-22.9,11.3c-0.8,0.4-1.2,1.7-1.8,2.6c1,0.4,2,1.1,3,1.1c5.8,0.1,11.8-0.4,17.5,0.3
			c7.1,0.8,14.4,2.4,20.3,6.7c8.3,6,11.8,12.7,9.4,25c-1.3,6.8-4.7,12.7-9,18c-5.6,6.9-11.2,13.8-17,20.4c-2.9,3.3-6.5,6.2-9.8,9.2
			c-4.7,4.3-9.3,8.6-14,12.8c-3.2,2.8-6.5,5.4-9.8,8c-6,4.7-12.1,9.3-18.2,13.9c-2.4,1.8-4.9,3.4-7.4,5.1c-6.7,4.5-13.3,9-20,13.4
			c-1.9,1.3-3.9,2.5-6,3.7c-5.5,3.1-11,6.3-16.6,9.3c-7.1,3.8-14.2,7.5-21.4,11c-5.6,2.7-11.4,5.2-17.2,7.5
			c-6.8,2.7-13.8,5.1-20.8,7.3c-5,1.6-10.2,2.4-15.3,3.8c-12.4,3.5-25,3.5-37.6,2.9c-7.8-0.3-15.2-2.7-22.3-5.7
			c-6-2.5-11.7-6-16.6-10.4c-10.7-9.3-16.7-21.2-18.4-35.2c-1.8-14.1,0.4-27.8,4.9-41.1c4-11.9,8.4-23.7,13.2-35.2
			c3.9-9.3,8.6-18.3,13.3-27.2c4.9-9.3,10.2-18.5,15.6-27.5c4.1-6.9,8.6-13.5,13.1-20.2c5.3-7.9,10.6-15.7,16.2-23.5
			c4.1-5.7,8.5-11.1,12.8-16.6c4.3-5.6,8.6-11.1,13.1-16.6c3.4-4.1,6.9-8.1,10.5-12.1c5-5.7,10.1-11.4,15.3-16.9
			c3.7-4,7.5-8,11.5-11.8c6.2-6,12.4-11.9,18.8-17.8c3.2-2.9,6.5-5.7,9.8-8.4c5.4-4.5,10.8-9,16.3-13.4c3.4-2.7,6.8-5.2,10.4-7.7
			c6.9-4.8,13.9-9.6,20.9-14.3c2.2-1.5,4.5-2.9,6.8-4.2c7.7-4.4,15.5-8.9,23.3-13.2c4.6-2.5,9.2-4.9,13.9-7.3
			c6.7-3.3,13.5-6.5,20.2-9.8c0.3-0.1,0.6-0.1,0.9-0.2C412.6,170.4,412.6,170.4,412.6,170.5z M534.9,363c0.1,5.8,3.4,9.3,7.6,11.8
			c4.5,2.7,9.3,4.9,14.2,6.6c5.3,1.8,10.8,2.9,16.3,3.9c5.9,1,11.9,1.5,17.9,2.3c2,0.2,3.5-0.8,4.7-2.3c1.6-1.9,3.1-3.9,4.7-5.9
			c4.3-5.3,8.6-10.6,12.8-16c5.4-7,10.8-14.1,16.1-21.1c3.1-4.1,6.3-8.2,9.4-12.4c5-6.8,9.9-13.6,14.8-20.4c2.9-4.1,6-8.1,8.7-12.3
			c4.5-6.8,8.8-13.8,13.2-20.7c3.8-6.1,7.6-12.3,11.2-18.5c0.5-0.8,0.7-2.3,0.2-3.1c-0.3-0.6-1.8-0.6-2.8-0.7
			c-0.4-0.1-0.9,0.1-1.4,0.2c-6.6,1-12.6,3.4-18.5,6.4c-5.4,2.8-11,5.2-16.4,8c-6.6,3.4-13.1,7-19.5,10.7c-6.1,3.5-12,7.3-17.9,11.2
			c-5.3,3.5-10.5,7-15.6,10.8c-6.5,4.8-13,9.7-19.3,14.9c-5.4,4.5-10.4,9.4-15.7,14c-7,6.1-13,13.1-18.9,20.3
			C537.5,354.3,535.3,358.4,534.9,363z M522.8,370.7c-0.3,1-0.4,1.3-0.4,1.5c0,15.9-0.2,31.8,0.1,47.7c0.1,5.5,1.5,10.9,2.7,16.3
			c0.6,2.7,2.9,4.4,5.6,4.1c2.3-0.3,4.7-1,6.9-1.9c3.5-1.6,7.2-3.3,10.3-5.7c5.2-3.9,10.2-8.3,15-12.7c4.5-4.1,8.8-8.5,13.1-12.8
			c1.7-1.7,3.1-3.8,4.8-5.9c-3.2-0.9-6-1.7-8.8-2.3c-8.8-1.8-17.3-4.3-25.6-7.9c-5.4-2.3-10.3-5.4-14.5-9.4c-2.4-2.2-4-5.2-6.1-7.7
			C525.1,372.9,524.1,372,522.8,370.7z"/>
		<path fill="none" d="M534.9,363c0.5-4.5,2.6-8.7,5.6-12.4c5.8-7.2,11.9-14.2,18.9-20.3c5.3-4.6,10.3-9.6,15.7-14
			c6.3-5.2,12.7-10.1,19.3-14.9c5.1-3.8,10.3-7.3,15.6-10.8c5.9-3.8,11.8-7.6,17.9-11.2c6.4-3.7,12.9-7.3,19.5-10.7
			c5.4-2.8,11-5.2,16.4-8c5.9-3,11.9-5.5,18.5-6.4c0.5-0.1,1-0.3,1.4-0.2c1,0.2,2.5,0.2,2.8,0.7c0.4,0.8,0.2,2.2-0.2,3.1
			c-3.7,6.2-7.4,12.4-11.2,18.5c-4.3,6.9-8.7,13.9-13.2,20.7c-2.8,4.2-5.8,8.2-8.7,12.3c-4.9,6.8-9.8,13.6-14.8,20.4
			c-3.1,4.2-6.2,8.3-9.4,12.4c-5.4,7.1-10.7,14.1-16.1,21.1c-4.2,5.4-8.6,10.6-12.8,16c-1.6,2-3.1,4-4.7,5.9
			c-1.2,1.5-2.6,2.5-4.7,2.3c-6-0.7-12-1.2-17.9-2.3c-5.5-1-11-2.1-16.3-3.9c-4.9-1.7-9.7-4-14.2-6.6
			C538.3,372.3,535,368.7,534.9,363z"/>
		<path fill="none" d="M522.8,370.7c1.3,1.3,2.3,2.2,3.1,3.2c2.1,2.6,3.7,5.5,6.1,7.7c4.3,3.9,9.1,7,14.5,9.4
			c8.3,3.6,16.8,6.1,25.6,7.9c2.8,0.6,5.5,1.4,8.8,2.3c-1.7,2.1-3.1,4.2-4.8,5.9c-4.3,4.4-8.6,8.7-13.1,12.8
			c-4.9,4.4-9.8,8.7-15,12.7c-3.1,2.3-6.7,4-10.3,5.7c-2.1,1-4.5,1.7-6.9,1.9c-2.7,0.3-5-1.3-5.6-4.1c-1.1-5.4-2.5-10.9-2.7-16.3
			c-0.4-15.9-0.1-31.8-0.1-47.7C522.5,372,522.6,371.8,522.8,370.7z"/>
	</g>
</g>
</svg>
