<?xml version="1.0" encoding="UTF-8"?>
<svg width="1320" height="1000" version="1.1" viewBox="240 2520 19400 14660" xml:space="preserve" xmlns="http://www.w3.org/2000/svg">
<style type="text/css">
	.st0{fill:#818081;}
	.st1{fill:#961B22;}
	.st2{fill:#D5D2D2;}
</style>
<g transform="matrix(16.414 -2.5997 2.3772 15.009 3789.5 4283)">
	
	<path class="st1" d="m887.39 398.87c-1.64 12.3-9.43 20.71-18.41 28.05-25.17 20.57-53.69 35.7-82.51 50.34-55.22 28.06-112.01 52.66-168.92 77-74.62 31.92-149.7 62.77-224.72 93.74-56.88 23.48-113.93 46.52-170.72 70.21-60.48 25.23-121.13 50.07-180.7 77.45-22.97 10.56-46.39 20.14-69.43 30.55-19.63 8.87-40.27-3.6-41.38-22.4-0.02-0.26-0.39-0.5-0.6-0.75 0.3-13.26 5.99-22.53 18.02-29.23 62.52-34.79 128.52-61.76 194.93-87.82 132.18-51.86 266.2-98.7 399.71-146.93 71.6-25.87 143.33-51.4 213.47-81.13 23.58-10 47-20.34 69.29-33.03 11.5-6.68 23.17-13.16 32.47-23.31-2.84-1.97-5.41-2.24-7.82-2.48-18.18-1.78-36.35-3.7-54.56-4.98-20.39-1.43-40.84-2.03-61.23-3.45-7.14-0.5-14.3-0.36-21.42-1.05-18.84-1.83-37.67-3.68-56.49-5.72-4.19-0.45-7.33 0.84-10.36 3.55-16.25 14.54-32.99 28.49-50.95 40.89-16.32 11.27-32.97 22-52.22 27.77-21.55 6.46-35.1-0.62-42.31-21.73-4.37-12.8-4.85-26.12-5.25-39.36-0.7-23.29 1.75-46.5 2.94-69.74 0.48-9.28 1.66-18.52 2.44-27.78 1.03-12.18 1.97-24.36 3.04-37.58-1.03 1.79-1.62 2.74-2.13 3.74-15.55 30.18-31.18 60.32-46.62 90.55-20.05 39.28-39.74 78.75-60.97 117.42-18.35 33.42-37.51 66.37-61.22 96.37-7.18 9.08-14.15 18.55-24.27 24.89-9.32 5.83-18.1 2.02-20.77-8.79-1.67-6.74 0.42-13.22 0.37-19.82 8.5-35.78 23.53-69.13 38.2-102.61 15.46-35.3 33.04-69.65 47.22-105.52 2.87-7.27 5.62-14.58 7.57-22.16 3.54-7.96 5.29-16.37 5.76-25 0.55-9.98-2.2-12.09-12.01-10.58-11.06 1.7-21.69 4.94-32.3 8.28-37.03 11.66-72.57 27.14-108.11 42.58-1.3 0.56-3.12 0.73-3.79 2.84 18.47-0.27 36.62-0.89 54.42 3.53 9.88 2.5 19.23 6.08 27.7 11.97 11.03 7.67 16.82 18.04 17.38 31.4-0.2 7.21-1.72 14.11-4.45 20.83-5.51 13.59-15.27 24.13-24.91 34.67-28.73 31.41-62.54 56.76-97.44 80.73-48.28 33.15-99.02 62.01-152.41 86.09-38.1 17.18-77.1 31.87-118.25 40.26-31.73 6.47-63.58 10.69-95.98 6.38-24.92-3.32-48.24-11.15-68.89-25.84-28.42-20.22-42.15-47.9-42.01-82.75 0.03-8.54 2.45-16.78 2.29-25.29l0.01-0.05c1.13-0.79 1.02-1.89 0.75-3.03 7.39-31.48 20.23-60.87 35.02-89.41 39.88-76.99 92.05-145.21 150.11-209.19 44.44-48.98 92.51-94.01 145.54-133.62 72.88-54.45 152.55-96.4 237.53-128.48 8.74-3.3 17.88-5.17 26.97-7.17 3.27-0.72 6.17 0.47 9.19 2.38-0.7 0.58-1.15 1.27-1.63 1.29-17.01 0.78-31.37 9.4-46.39 15.89-10.9 4.71-21.44 10.23-31.78 16.11-7.27 2.85-13.88 6.97-20.6 10.84-4.67 2.69-9.88 4.53-13.89 8.33l0.09-0.08c-0.7 0.36-1.39 0.72-2.09 1.09l0.09-0.06c-0.32 0.1-0.63 0.2-0.94 0.31-0.32 0.08-0.67 0.1-0.94 0.26-50.94 29.77-99.64 62.71-144.57 101.1-28.11 24.03-54.97 49.32-80.29 76.28-28.6 30.47-55.58 62.28-81.23 95.26-47.23 60.73-89.53 124.52-121.12 194.95-10.41 23.21-20.83 46.54-24.37 72.02-1.65 11.85-1.95 23.91 4.06 35.05 0.8 2.13 1.27 4.43 3.14 6 7.41 12.43 19 19.82 31.68 25.64 21.06 9.67 43.35 12.18 66.28 10.78 55.32-3.39 106.21-22.07 155.46-45.77 75.01-36.09 144.34-81.2 208.63-134.02 16.84-13.83 33.5-27.93 49.14-43.16 1.18-1.15 2.21-2.46 3.31-3.7 4.15-2.41 6.77-6.28 9.45-10.06 5.04-7.1 4.19-10.57-3.76-14.41-9.61-4.65-20.02-6.06-30.51-6.47-30-1.16-59.17 4.58-88.29 10.84-30.24 6.5-59.06 16.43-86.54 30.94-24.69 13.04-50.17 24.65-76.04 35.27-14.91 6.12-29.8 12.54-45.8 15.23-7.69 1.3-16.22 3.19-21.04-6.22-2.51-8.19 0.15-14.36 6.66-19.76 19.45-16.14 41.82-27.11 64.79-36.99 32.11-13.8 65.08-25.2 98.78-34.49 13.18-3.64 24.36-11.4 36.12-17.88 50.12-27.63 100.99-53.7 154.46-74.35 16.6-6.41 33.39-12.4 51.1-14.98 9.1-1.32 18.3-1.22 27.35 0.61 16.89 3.41 25.09 12.71 28.28 31.67-0.01 0.72-0.01 1.44-0.02 2.15-0.32 0.78-0.21 1.45 0.5 1.97 0.08 0.62 0.16 1.24 0.24 1.87-1.97 3.16-0.87 6.78-1.43 10.16-3.86 23.61-11.99 45.93-20.71 68.02-19.46 49.3-41.81 97.42-60 147.23-2.92 8.01-6.02 15.95-9.25 24.45 2.59-0.9 3.11-2.63 4.02-3.96 9.43-13.71 17.92-28.01 25.73-42.69 3.26-6.13 7.39-11.82 9.62-18.49 0.31-0.56 0.62-1.12 0.94-1.68l0.02-0.03c0.34-0.66 0.68-1.32 1.02-1.98l-0.03 0.03c9.34-16.8 17.76-34.05 25.33-51.71 14.98-31.87 29.77-63.83 45.01-95.57 13.88-28.9 27.21-58.14 44.87-85.05 4.74-7.23 9.83-14.27 15.26-20.99 4.37-5.42 9.68-9.7 17.56-8.06 4.05 0.85 6.55 3.03 7.18 7.19 0.62 4.11 1.23 8.22 1.85 12.32-0.71 13.92-1.41 27.83-2.18 42.92 3.57-5.21 6.35-9.27 9.13-13.33 19.88-23.2 43.6-42.01 68.68-59.11 65.85-44.91 137.24-78.35 213.32-101.92 9.39-2.91 18.99-4.86 28.85-5.5 16.37-1.06 24.64 8.41 23.32 23.02-0.82 2.86-1.46 5.8-2.49 8.58-6.71 18.05-16.41 34.51-27.38 50.23-23.95 34.32-52.62 64.69-80.59 95.62-20.52 22.69-41.79 44.7-63.37 66.41-0.73 0.73-2.09 1.29-0.96 3.97h26.38c31.93 1.34 63.87 2.48 95.78 4.09 19.93 1.01 39.94 2.02 58.77 9.82 0.46 0.19 0.93 0.37 1.38 0.57 12.82 5.7 22.11 13.8 20.79 29.41zm-367.43 38.2c0.74 1.55 0.52 3.73 2.77 4.3 4.28 3.17 8.87 2.1 13.31 0.68 23.86-7.65 42.83-23.06 61.45-38.99 0.29-0.36 0.58-0.71 0.87-1.07 8.92-6.18 16.51-13.79 24.51-21.53-1.3-0.82-1.68-1.24-2.11-1.3-11.53-1.6-22.86-4.23-34.09-7.23-27.21-7.26-53.88-15.58-71.11-40.52-1.56 1.37-1.49 3.04-1.48 4.65 0.17 25.96-1.45 51.95 1.05 77.85 0.77 7.81 0.97 15.92 4.83 23.16zm27.71-112c4.66 5.07 10.9 7.56 17.05 9.98 25.51 10.07 52.43 13.23 79.44 16.12 6.06 0.65 9.79-1.21 13.79-5.45 30.72-32.62 60.09-66.44 89.17-100.51 24.33-28.5 48.08-57.47 69.24-88.47 7.51-10.23 14.87-20.57 22.08-31.9-5.71-1.39-10.24 0.7-14.7 1.81-25.17 6.24-48.53 17.33-71.9 28.14-42.97 19.89-84.08 43.18-122.95 70.27-26.66 18.58-52.29 38.46-74.6 62.27-5.32 5.68-10.85 11.26-13.45 18.97-2.02 5.95-1.47 13.92 6.83 18.77z" stroke="#961b22" stroke-width="6.2926" style="paint-order:stroke markers fill"/>
	<path class="st0" d="m-271.12 531.04c0.28 1.14 0.38 2.24-0.75 3.03-0.48-1.2-0.25-2.21 0.75-3.03z"/>
	<path class="st2" d="m219.04 17.94c-0.7 0.36-1.39 0.72-2.09 1.09 0.7-0.36 1.39-0.73 2.09-1.09z"/>
	<path class="st0" d="m410.28 301.11c0.69 0.52 0.79 1.2 0.5 1.97-0.71-0.53-0.82-1.19-0.5-1.97z"/>
	<path class="st2" d="m359.98 487.95c0.34-0.66 0.68-1.32 1.02-1.98-0.35 0.66-0.68 1.32-1.02 1.98z"/>
	<path class="st2" d="m359.02 489.66c0.31-0.56 0.62-1.12 0.94-1.68-0.32 0.56-0.63 1.12-0.94 1.68z"/>
	<path class="st2" d="m217.04 18.97c-0.31 0.1-0.63 0.21-0.94 0.31 0.31-0.11 0.62-0.21 0.94-0.31z"/>
</g>
</svg>
